<svg width="18" height="18" viewBox="0 0 18 18" fill="none" xmlns="http://www.w3.org/2000/svg">
<path d="M8.43861 5.32321L6.69506 7.06676C6.05269 7.70912 5.40666 8.35149 4.76797 9.00119C4.61747 9.15536 4.50368 9.36091 4.45963 9.5628C4.22838 10.6236 4.00447 11.6844 3.78057 12.7452L3.65576 13.3325C3.59703 13.6189 3.67412 13.9052 3.86866 14.0997C4.01916 14.2502 4.22838 14.3346 4.44862 14.3346C4.51102 14.3346 4.57342 14.3273 4.63583 14.3163L5.28186 14.1805C6.30964 13.9639 7.34109 13.7437 8.36887 13.5308C8.60746 13.4794 8.80935 13.3729 8.98187 13.2004C11.867 10.3116 14.7521 7.42648 17.6372 4.54503C17.8501 4.33213 17.9676 4.07886 17.997 3.76685C18.0006 3.71546 17.997 3.66408 17.986 3.61636C17.9676 3.54294 17.9529 3.46586 17.9346 3.39245C17.8942 3.20525 17.8501 2.99235 17.7621 2.78679C17.2225 1.55346 16.3268 0.672502 15.1008 0.176965C14.8549 0.077858 14.5943 0.0448222 14.3667 0.0154571L14.3043 0.00811581C13.9739 -0.0322613 13.673 0.077858 13.4123 0.342144C11.7605 2.00127 10.0977 3.66408 8.43861 5.32321ZM14.1832 0.892741C14.1905 0.892741 14.1942 0.892741 14.2015 0.892741L14.2639 0.900082C14.4548 0.922106 14.631 0.94413 14.7705 1.00286C15.7689 1.40663 16.503 2.12608 16.9472 3.13917C16.9986 3.25663 17.0316 3.40713 17.0646 3.56497C17.0756 3.6237 17.0903 3.68243 17.1013 3.74116C17.0867 3.80723 17.061 3.85128 17.0096 3.899C14.1208 6.78045 11.2356 9.66925 8.35052 12.5544C8.3028 12.6021 8.25875 12.6241 8.19268 12.6388C7.16123 12.8554 6.13345 13.0719 5.102 13.2885L4.55874 13.4023L4.66152 12.9214C4.88543 11.8643 5.10934 10.8035 5.33692 9.74633C5.34426 9.71329 5.37363 9.6619 5.40666 9.6252C6.04535 8.97917 6.68405 8.3368 7.32641 7.69811L9.06996 5.95456C10.7328 4.29176 12.3956 2.62895 14.0547 0.962483C14.1244 0.903753 14.1575 0.892741 14.1832 0.892741Z" fill="black"/>
<path d="M1.42788 4.00177H7.83682C8.08643 4.00177 8.28831 3.79988 8.28831 3.55028C8.28831 3.30067 8.08643 3.09879 7.83682 3.09879H1.42788C0.638692 3.09879 0 3.74115 0 4.52667V16.5444C0 17.3335 0.642363 17.9722 1.42788 17.9722H13.4419C14.2311 17.9722 14.8698 17.3299 14.8698 16.5444V10.396C14.8698 10.1464 14.6679 9.94454 14.4183 9.94454C14.1687 9.94454 13.9668 10.1464 13.9668 10.396V16.5444C13.9668 16.8343 13.7282 17.0729 13.4382 17.0729H1.42788C1.1379 17.0729 0.899308 16.8343 0.899308 16.5444V4.53034C0.899308 4.24036 1.1379 4.00177 1.42788 4.00177Z" fill="black"/>
</svg>
